<?xml version="1.0" standalone="no"?><!DOCTYPE svg PUBLIC "-//W3C//DTD SVG 1.1//EN" "http://www.w3.org/Graphics/SVG/1.1/DTD/svg11.dtd"><svg t="1559124462525" class="icon" style="" viewBox="0 0 1024 1024" version="1.1" xmlns="http://www.w3.org/2000/svg" p-id="5119" xmlns:xlink="http://www.w3.org/1999/xlink" width="200" height="200"><defs><style type="text/css"></style></defs><path d="M730.402195 880.056634 293.632597 880.056634c-97.240695 0-123.57548-33.3035-123.57548-137.02377L170.057117 446.054055c0-14.601556 11.485589-26.437116 25.703405-26.437116 14.182001 0 25.666566 11.835559 25.666566 26.437116l0 296.979832c0 75.531254 3.048429 84.182284 72.205509 84.182284l436.769598 0c69.122287 0 81.939197-8.651031 81.939197-84.182284L812.341393 446.054055c0-14.601556 11.520381-26.437116 25.701358-26.437116 14.183024 0 25.703405 11.835559 25.703405 26.437116l0 296.979832C863.746156 846.753133 827.643913 880.056634 730.402195 880.056634L730.402195 880.056634zM527.442714 191.480033 103.526865 519.414877c-4.624321 3.605108-10.04989 5.322216-15.443737 5.322216-7.77508 0-15.47853-3.640923-20.520359-10.5421-8.544607-11.658528-6.26775-28.220738 5.078669-36.976146l423.916872-327.968613c11.344373-8.755408 27.452235-6.445806 35.96205 5.216815C541.063943 166.126598 538.78811 182.690856 527.442714 191.480033L527.442714 191.480033zM956.436208 514.194992c-5.04183 6.9022-12.744255 10.5421-20.519336 10.5421-5.392824 0-10.819416-1.716084-15.442714-5.28947l-423.914826-327.96759c-11.345396-8.7902-13.622252-25.317619-5.079692-36.978193 8.54563-11.660574 24.65247-13.9712 35.963073-5.251607l423.915849 327.968613C962.703959 486.005976 964.981838 502.536464 956.436208 514.194992L956.436208 514.194992z" p-id="5120"></path></svg>